<?xml version="1.0" encoding="UTF-8" standalone="no"?>
<svg
   class="feather feather-star"
   fill="none"
   height="24"
   stroke="currentColor"
   stroke-linecap="round"
   stroke-linejoin="round"
   stroke-width="2"
   viewBox="0 0 24 24"
   width="24"
   version="1.1"
   id="svg1"
   sodipodi:docname="star_filled.svg"
   inkscape:version="1.3.2 (091e20ef0f, 2023-11-25)"
   xmlns:inkscape="http://www.inkscape.org/namespaces/inkscape"
   xmlns:sodipodi="http://sodipodi.sourceforge.net/DTD/sodipodi-0.dtd"
   xmlns="http://www.w3.org/2000/svg"
   xmlns:svg="http://www.w3.org/2000/svg">
  <defs
     id="defs1" />
  <sodipodi:namedview
     id="namedview1"
     pagecolor="#ffffff"
     bordercolor="#999999"
     borderopacity="1"
     inkscape:showpageshadow="2"
     inkscape:pageopacity="0"
     inkscape:pagecheckerboard="0"
     inkscape:deskcolor="#d1d1d1"
     inkscape:zoom="34.5"
     inkscape:cx="12"
     inkscape:cy="12"
     inkscape:window-width="1920"
     inkscape:window-height="1032"
     inkscape:window-x="0"
     inkscape:window-y="0"
     inkscape:window-maximized="1"
     inkscape:current-layer="svg1" />
  <polygon
     points="12 2 15.09 8.26 22 9.27 17 14.14 18.18 21.02 12 17.77 5.82 21.02 7 14.14 2 9.27 8.91 8.26 12 2"
     id="polygon1" />
  <path
     style="fill:#ffff00;stroke-width:0.057971"
     d="m 7.1884058,19.097418 c 0,-0.02725 0.1838188,-1.120102 0.4084861,-2.428556 C 8.0573548,13.987145 8.0593041,13.967646 7.896862,13.66817 7.8300449,13.544987 7.4216843,13.131109 6.0096756,11.755486 5.0186204,10.789969 4.2164465,9.9922093 4.2270669,9.982687 4.2376874,9.9731649 5.3485507,9.8050722 6.6956522,9.6091475 8.3125597,9.373982 9.1991052,9.2329988 9.3043478,9.1942991 9.4183452,9.15238 9.509191,9.0886739 9.6231884,8.9707096 9.7713548,8.8173872 9.860231,8.6478817 10.882188,6.5695376 c 0.604769,-1.2299124 1.107899,-2.2362043 1.118066,-2.2362043 0.01017,0 0.513183,1.0064161 1.117812,2.2364802 1.039911,2.1156079 1.108153,2.2454511 1.262664,2.4024694 0.113879,0.1157264 0.210427,0.1833159 0.318841,0.2232087 0.100376,0.036935 1.02378,0.1834255 2.604777,0.413227 1.347101,0.1958043 2.458134,0.3639443 2.468962,0.3736446 0.01083,0.0097 -0.793457,0.8096388 -1.7873,1.7776408 -1.566181,1.525459 -1.81794,1.78233 -1.889181,1.927536 -0.15122,0.308222 -0.149822,0.321795 0.307999,2.989832 0.225326,1.313135 0.405767,2.405098 0.400979,2.426587 -0.0058,0.02594 -0.749211,-0.350455 -2.211604,-1.119709 -1.211594,-0.637327 -2.248551,-1.171609 -2.304348,-1.187294 -0.141775,-0.03985 -0.486798,-0.0336 -0.611829,0.01108 -0.05752,0.02056 -1.068391,0.543583 -2.2463773,1.16228 -1.1779864,0.618697 -2.1646197,1.136547 -2.1925183,1.150777 -0.038617,0.0197 -0.050725,0.01405 -0.050725,-0.02368 z"
     id="path1" />
</svg>
